<svg width="136" height="132" viewBox="0 0 136 132" fill="none" xmlns="http://www.w3.org/2000/svg">
<path d="M20.6638 32.5892C6.80237 33.923 1.46756 47.9583 2.5263 60.1651C4.97526 88.7404 28.8706 107.003 50.225 123.215C51.8248 124.429 54.5637 125.813 56.1592 127.033C58.4269 128.774 59.1422 127.819 61.1067 126.594C63.806 128.337 67.7363 128.25 69.7232 124.634C76.0925 113.055 81.1435 100.742 84.6627 87.9965C88.1625 75.2758 91.7023 60.2949 86.673 47.5277C82.6556 37.2821 72.14 28.9518 60.6532 30.588C52.6864 31.7277 47.352 37.11 43.963 43.7182C38.0043 36.8738 30.5107 31.6206 20.664 32.5894L20.6638 32.5892Z" fill="#F284A4"/>
<path d="M89.0041 50.4561C86.4782 43.9766 81.3607 39.0688 74.0617 37.2622C63.5465 34.6347 52.9662 41.3728 48.2173 50.5209C42.3208 61.9068 44.1789 76.18 46.2096 88.3424C48.2372 100.526 51.7574 112.451 56.5724 123.837C58.0621 127.369 61.7111 127.843 64.388 126.487C65.6719 123.85 58.6679 126.14 61.6935 131.825C84.193 118.027 119.838 98.6531 125.257 70.3248C127.395 59.0674 123.79 45.5275 111.05 42.944C101.981 41.1132 95.2017 44.6447 89.0043 50.4561H89.0041Z" fill="#3FA1CA"/>
<path d="M135.665 27.2288C135.665 34.5055 129.748 40.403 122.472 40.403C115.174 40.403 109.279 34.5055 109.279 27.2288C109.279 19.9747 115.174 14.0762 122.472 14.0762C129.748 14.0762 135.665 19.9747 135.665 27.2288Z" fill="#3FA1CA"/>
<path d="M72.5075 75.986C72.5075 82.5946 67.1301 87.9549 60.5024 87.9549C53.8517 87.9549 48.4744 82.5946 48.4744 75.986C48.4744 69.3564 53.8519 63.9961 60.5024 63.9961C67.1301 63.9961 72.5075 69.3564 72.5075 75.986Z" fill="#FEFEFE"/>
<path d="M28.2438 14.0771C28.2438 21.8469 21.9173 28.1539 14.1225 28.1539C6.32817 28.1539 0 21.8469 0 14.0771C0 6.30514 6.32797 0 14.1225 0C21.9171 0 28.2438 6.30514 28.2438 14.0771Z" fill="#F284A4"/>
<path d="M45.8417 109.61L50.3741 123.405L61.694 131.826L73.7164 108.771L92.0478 94.2401C92.0478 94.2401 96.497 88.6223 92.0478 83.9293C87.5787 79.2354 82.6349 79.7099 80.0656 81.8205C77.474 83.9293 60.5466 93.2936 60.5466 93.2936L39.6229 80.2908C39.6229 80.2908 30.9431 78.7634 27.8762 85.0908C24.8331 91.4219 30.469 95.4015 30.469 95.4015L45.8419 109.61H45.8417Z" fill="#FEFEFE"/>
</svg>
